<?xml version="1.0" encoding="UTF-8"?>
<svg width="1214px" height="398px" viewBox="0 0 1214 398" version="1.1" xmlns="http://www.w3.org/2000/svg" xmlns:xlink="http://www.w3.org/1999/xlink">
    <!-- Generator: Sketch 49.3 (51167) - http://www.bohemiancoding.com/sketch -->
    <title>string-index</title>
    <desc>Created with Sketch.</desc>
    <defs>
        <rect id="path-1" x="0" y="0" width="1214" height="398"></rect>
    </defs>
    <g id="string-index" stroke="none" stroke-width="1" fill="none" fill-rule="evenodd">
        <g id="Rectangle">
            <use fill="#FFFFFF" fill-rule="evenodd" xlink:href="#path-1"></use>
            <rect stroke="#979797" stroke-width="1" x="0.5" y="0.5" width="1213" height="397"></rect>
        </g>
        <polygon id="Page-1-Copy" fill="#FFFFFF" points="-1 398 1214 398 1214 0 -1 0"></polygon>
        <rect id="Rectangle-2" fill="#DBE5FD" x="29" y="51" width="1156" height="203" rx="10"></rect>
        <path d="M90.5366211,140.726562 C89.2501563,140.726562 88.3688175,141.097653 87.8925781,141.839844 C87.4163388,142.582035 87.1782227,143.86848 87.1782227,145.699219 L87.1782227,146.645508 L92.0766602,146.645508 L92.0766602,148.946289 L87.1782227,148.946289 L87.1782227,167 L84.0795898,167 L84.0795898,148.946289 L80.7768555,148.946289 L81.0366211,146.905273 L84.0795898,146.645508 L84.0795898,145.736328 C84.1043296,143.113919 84.5960239,141.212083 85.5546875,140.030762 C86.5133511,138.849441 88.0626521,138.258789 90.2026367,138.258789 C91.0314169,138.258789 92.0457297,138.351562 93.2456055,138.537109 L93.0415039,140.967773 C91.9405869,140.806965 91.1056344,140.726562 90.5366211,140.726562 Z M101.094238,164.921875 C102.566251,164.921875 103.861974,164.516768 104.981445,163.706543 C106.100917,162.896318 106.82145,161.804694 107.143066,160.431641 L107.143066,156.999023 C107.081217,156.999023 106.707035,157.029948 106.020508,157.091797 C105.333981,157.153646 104.88558,157.190755 104.675293,157.203125 C101.991035,157.438152 100.120122,157.877275 99.0625,158.520508 C98.0048775,159.16374 97.4760742,160.196607 97.4760742,161.619141 C97.4760742,162.707688 97.7976856,163.530271 98.440918,164.086914 C99.0841504,164.643557 99.9685816,164.921875 101.094238,164.921875 Z M107.82959,167 C107.644042,166.208329 107.464682,165.354822 107.291504,164.439453 C106.165847,165.56511 105.108241,166.344399 104.118652,166.777344 C103.129064,167.210289 101.966315,167.426758 100.630371,167.426758 C98.7254137,167.426758 97.1946672,166.928879 96.0380859,165.933105 C94.8815046,164.937332 94.3032227,163.505543 94.3032227,161.637695 C94.3032227,159.55956 95.091789,158.019536 96.6689453,157.017578 C98.2461016,156.01562 100.519028,155.390952 103.487793,155.143555 C103.895998,155.106445 104.511389,155.053874 105.333984,154.98584 C106.15658,154.917806 106.771971,154.865235 107.180176,154.828125 L107.180176,153.02832 C107.180176,151.593417 106.846195,150.529626 106.178223,149.836914 C105.510251,149.144202 104.458829,148.797852 103.023926,148.797852 C101.02001,148.797852 98.9975688,149.292638 96.956543,150.282227 C96.8946937,150.133788 96.733888,149.703942 96.4741211,148.992676 C96.2143542,148.281409 96.0782878,147.913412 96.065918,147.888672 C96.9689173,147.381508 98.041986,146.976401 99.2851562,146.67334 C100.528327,146.370278 101.793125,146.21875 103.07959,146.21875 C105.61541,146.21875 107.443028,146.772293 108.5625,147.879395 C109.681972,148.986496 110.241699,150.869778 110.241699,153.529297 L110.241699,167 L107.82959,167 Z M120.799316,167 L112.913574,146.645508 L116.234863,146.645508 L120.725098,158.743164 L122.580566,163.901367 C123.001141,162.577793 123.582516,160.870779 124.324707,158.780273 C125.264816,156.145495 126.724437,152.100613 128.703613,146.645508 L132.006348,146.645508 L124.17627,167 L120.799316,167 Z M136.979004,156.869141 C136.979004,159.281262 137.513992,161.214023 138.583984,162.66748 C139.653977,164.120938 141.215647,164.847656 143.269043,164.847656 C145.297699,164.847656 146.828445,164.124031 147.861328,162.676758 C148.894211,161.229485 149.410645,159.281262 149.410645,156.832031 C149.410645,154.345691 148.900396,152.388191 147.879883,150.959473 C146.85937,149.530755 145.303884,148.816406 143.213379,148.816406 C141.184723,148.816406 139.638514,149.546217 138.574707,151.005859 C137.5109,152.465502 136.979004,154.41991 136.979004,156.869141 Z M152.620605,156.813477 C152.620605,159.967789 151.779468,162.525218 150.097168,164.48584 C148.414868,166.446462 146.08937,167.426758 143.120605,167.426758 C140.263169,167.426758 137.990243,166.437184 136.301758,164.458008 C134.613273,162.478831 133.769043,159.936864 133.769043,156.832031 C133.769043,153.665349 134.616365,151.104827 136.311035,149.150391 C138.005705,147.195954 140.331203,146.21875 143.287598,146.21875 C146.194513,146.21875 148.476717,147.199046 150.134277,149.159668 C151.791838,151.12029 152.620605,153.671534 152.620605,156.813477 Z M166.128418,146.459961 C166.685061,146.459961 167.192218,146.49707 167.649902,146.571289 L167.538574,149.428711 C166.969561,149.329752 166.474774,149.280273 166.054199,149.280273 C164.32242,149.280273 162.91537,149.883295 161.833008,151.089355 C160.750646,152.295416 160.209473,153.789054 160.209473,155.570312 L160.209473,167 L157.11084,167 C157.09847,154.506448 157.092285,147.721685 157.092285,146.645508 L159.671387,146.645508 L159.968262,150.300781 C160.673343,149.150385 161.570144,148.22266 162.658691,147.517578 C163.747239,146.812496 164.903802,146.459961 166.128418,146.459961 Z M174.496582,146.645508 L174.496582,167 L171.379395,167 L171.379395,146.645508 L174.496582,146.645508 Z M174.496582,139.242188 L174.496582,142.916016 L171.379395,142.916016 L171.379395,139.242188 L174.496582,139.242188 Z M186.816895,167.371094 C184.812978,167.371094 183.390466,166.882492 182.549316,165.905273 C181.708166,164.928055 181.262858,163.350922 181.213379,161.173828 L181.213379,148.946289 L178.188965,148.946289 L178.318848,146.905273 L181.194824,146.645508 L182.252441,141.988281 L184.293457,141.914062 L184.293457,146.645508 L189.952637,146.645508 L189.952637,148.946289 L184.293457,148.946289 L184.293457,160.617188 C184.293457,162.163419 184.528481,163.25195 184.998535,163.882812 C185.46859,164.513675 186.272618,164.829102 187.410645,164.829102 C187.81885,164.829102 188.703281,164.730144 190.063965,164.532227 L190.193848,166.981445 C188.721835,167.241212 187.596195,167.371094 186.816895,167.371094 Z M201.493652,148.779297 C199.910311,148.779297 198.617681,149.339024 197.615723,150.458496 C196.613765,151.577968 196.026205,153.108714 195.853027,155.050781 L206.596191,155.050781 C206.596191,153.034495 206.141606,151.485194 205.232422,150.402832 C204.323238,149.32047 203.076994,148.779297 201.493652,148.779297 Z M202.105957,167.426758 C199.149562,167.426758 196.820972,166.486663 195.120117,164.606445 C193.419262,162.726228 192.568848,160.153337 192.568848,156.887695 C192.568848,153.733383 193.391431,151.175954 195.036621,149.215332 C196.681812,147.25471 198.846504,146.25586 201.530762,146.21875 C204.054212,146.21875 206.055006,147.081534 207.533203,148.807129 C209.011401,150.532723 209.750488,152.836574 209.750488,155.71875 C209.750488,155.867188 209.747396,156.139321 209.741211,156.535156 C209.735026,156.930992 209.731934,157.215494 209.731934,157.388672 L195.760254,157.388672 C195.797363,159.701834 196.3942,161.504714 197.550781,162.797363 C198.707363,164.090013 200.262848,164.736328 202.217285,164.736328 C204.36964,164.736328 206.528147,164.167323 208.692871,163.029297 L209.175293,165.53418 C207.109527,166.795905 204.753106,167.426758 202.105957,167.426758 Z M230.179199,172.640625 L212.756348,172.640625 L212.756348,170.154297 L230.179199,170.154297 L230.179199,172.640625 Z M241.924316,140.726562 C240.637852,140.726562 239.756513,141.097653 239.280273,141.839844 C238.804034,142.582035 238.565918,143.86848 238.565918,145.699219 L238.565918,146.645508 L243.464355,146.645508 L243.464355,148.946289 L238.565918,148.946289 L238.565918,167 L235.467285,167 L235.467285,148.946289 L232.164551,148.946289 L232.424316,146.905273 L235.467285,146.645508 L235.467285,145.736328 C235.492025,143.113919 235.983719,141.212083 236.942383,140.030762 C237.901046,138.849441 239.450347,138.258789 241.590332,138.258789 C242.419112,138.258789 243.433425,138.351562 244.633301,138.537109 L244.429199,140.967773 C243.328282,140.806965 242.49333,140.726562 241.924316,140.726562 Z M255.729004,146.459961 C256.285647,146.459961 256.792804,146.49707 257.250488,146.571289 L257.13916,149.428711 C256.570147,149.329752 256.07536,149.280273 255.654785,149.280273 C253.923006,149.280273 252.515956,149.883295 251.433594,151.089355 C250.351232,152.295416 249.810059,153.789054 249.810059,155.570312 L249.810059,167 L246.711426,167 C246.699056,154.506448 246.692871,147.721685 246.692871,146.645508 L249.271973,146.645508 L249.568848,150.300781 C250.273929,149.150385 251.17073,148.22266 252.259277,147.517578 C253.347824,146.812496 254.504388,146.459961 255.729004,146.459961 Z M259.736816,160.208984 L259.736816,146.645508 L262.854004,146.645508 L262.854004,160.246094 C262.854004,161.136723 262.980793,161.891273 263.234375,162.509766 C263.487957,163.128258 263.852862,163.607583 264.329102,163.947754 C264.805341,164.287925 265.343421,164.532226 265.943359,164.680664 C266.543297,164.829102 267.232906,164.90332 268.012207,164.90332 C269.620288,164.90332 270.872717,164.550785 271.769531,163.845703 C272.666346,163.140621 273.114746,161.940764 273.114746,160.246094 L273.114746,146.645508 L276.231934,146.645508 L276.231934,160.208984 C276.231934,161.248052 276.083498,162.181962 275.786621,163.010742 C275.489745,163.839522 275.090823,164.529131 274.589844,165.07959 C274.088865,165.630048 273.485843,166.084634 272.780762,166.443359 C272.07568,166.802085 271.330408,167.061848 270.544922,167.222656 C269.759436,167.383464 268.915206,167.463867 268.012207,167.463867 C267.121578,167.463867 266.28044,167.383464 265.48877,167.222656 C264.697099,167.061848 263.945642,166.798993 263.234375,166.434082 C262.523108,166.069171 261.91081,165.611494 261.397461,165.061035 C260.884112,164.510577 260.479005,163.820968 260.182129,162.992188 C259.885252,162.163407 259.736816,161.235682 259.736816,160.208984 Z M284.507324,146.645508 L284.507324,167 L281.390137,167 L281.390137,146.645508 L284.507324,146.645508 Z M284.507324,139.242188 L284.507324,142.916016 L281.390137,142.916016 L281.390137,139.242188 L284.507324,139.242188 Z M296.827637,167.371094 C294.82372,167.371094 293.401209,166.882492 292.560059,165.905273 C291.718909,164.928055 291.273601,163.350922 291.224121,161.173828 L291.224121,148.946289 L288.199707,148.946289 L288.32959,146.905273 L291.205566,146.645508 L292.263184,141.988281 L294.304199,141.914062 L294.304199,146.645508 L299.963379,146.645508 L299.963379,148.946289 L294.304199,148.946289 L294.304199,160.617188 C294.304199,162.163419 294.539223,163.25195 295.009277,163.882812 C295.479332,164.513675 296.28336,164.829102 297.421387,164.829102 C297.829592,164.829102 298.714023,164.730144 300.074707,164.532227 L300.20459,166.981445 C298.732577,167.241212 297.606937,167.371094 296.827637,167.371094 Z" id="favorite_fruit" fill="#4C7EF3"></path>
        <path d="M254.763184,324.645508 L254.763184,345 L251.645996,345 L251.645996,324.645508 L254.763184,324.645508 Z M254.763184,317.242188 L254.763184,320.916016 L251.645996,320.916016 L251.645996,317.242188 L254.763184,317.242188 Z M260.589355,345 L260.589355,324.645508 L263.187012,324.645508 L263.57666,327.558594 C264.380701,326.556636 265.385736,325.749515 266.591797,325.137207 C267.797858,324.524899 269.099765,324.21875 270.497559,324.21875 C272.847831,324.21875 274.585769,324.877435 275.711426,326.194824 C276.837082,327.512214 277.399902,329.537747 277.399902,332.271484 L277.399902,345 L274.30127,345 C274.30127,336.835897 274.295085,332.463219 274.282715,331.881836 C274.233235,330.150056 273.883792,328.882165 273.234375,328.078125 C272.584958,327.274085 271.499519,326.87207 269.978027,326.87207 C268.382316,326.87207 267.052577,327.25553 265.98877,328.022461 C264.924962,328.789392 264.232261,329.78515 263.910645,331.009766 C263.786946,331.838546 263.725098,332.79101 263.725098,333.867188 L263.725098,345 L260.589355,345 Z M290.499512,342.754883 C292.540538,342.754883 294.058914,342.09929 295.054688,340.788086 C296.050461,339.476881 296.54834,337.602877 296.54834,335.166016 C296.54834,332.419908 296.069015,330.351081 295.110352,328.959473 C294.151688,327.567864 292.602387,326.87207 290.462402,326.87207 C289.509924,326.87207 288.668786,327.07617 287.938965,327.484375 C287.209143,327.89258 286.621584,328.461585 286.17627,329.191406 C285.730955,329.921228 285.393881,330.759273 285.165039,331.705566 C284.936197,332.65186 284.821777,333.68782 284.821777,334.813477 C284.821777,336.396818 285.0166,337.769851 285.40625,338.932617 C285.7959,340.095383 286.423661,341.023109 287.289551,341.71582 C288.155441,342.408532 289.225417,342.754883 290.499512,342.754883 Z M296.604004,342.049805 C295.936032,343.076503 295.045416,343.892901 293.932129,344.499023 C292.818842,345.105146 291.57569,345.408203 290.202637,345.408203 C287.518379,345.408203 285.415535,344.452646 283.894043,342.541504 C282.372551,340.630362 281.611816,338.029639 281.611816,334.739258 C281.611816,331.597315 282.384921,329.058441 283.931152,327.122559 C285.477384,325.186677 287.549303,324.21875 290.146973,324.21875 C291.495287,324.21875 292.76627,324.51253 293.959961,325.100098 C295.153652,325.687666 296.04736,326.476232 296.641113,327.46582 L296.585449,325.703125 L296.585449,316.741211 L299.646973,316.555664 L299.646973,345 L297.012207,345 L296.604004,342.049805 Z M313.024902,326.779297 C311.441561,326.779297 310.148931,327.339024 309.146973,328.458496 C308.145015,329.577968 307.557455,331.108714 307.384277,333.050781 L318.127441,333.050781 C318.127441,331.034495 317.672856,329.485194 316.763672,328.402832 C315.854488,327.32047 314.608244,326.779297 313.024902,326.779297 Z M313.637207,345.426758 C310.680812,345.426758 308.352222,344.486663 306.651367,342.606445 C304.950512,340.726228 304.100098,338.153337 304.100098,334.887695 C304.100098,331.733383 304.922681,329.175954 306.567871,327.215332 C308.213062,325.25471 310.377754,324.25586 313.062012,324.21875 C315.585462,324.21875 317.586256,325.081534 319.064453,326.807129 C320.542651,328.532723 321.281738,330.836574 321.281738,333.71875 C321.281738,333.867188 321.278646,334.139321 321.272461,334.535156 C321.266276,334.930992 321.263184,335.215494 321.263184,335.388672 L307.291504,335.388672 C307.328613,337.701834 307.92545,339.504714 309.082031,340.797363 C310.238613,342.090013 311.794098,342.736328 313.748535,342.736328 C315.90089,342.736328 318.059397,342.167323 320.224121,341.029297 L320.706543,343.53418 C318.640777,344.795905 316.284356,345.426758 313.637207,345.426758 Z M330.967285,334.646484 L323.786621,324.645508 L327.330566,324.645508 L332.76709,332.401367 L338.222168,324.645508 L341.766113,324.645508 L334.566895,334.683594 L341.95166,345 L338.519043,345 L332.785645,336.817383 L327.052246,345 L323.508301,345 L330.967285,334.646484 Z" id="index" fill="#4C7EF3"></path>
        <path d="M403.027832,345.426758 C401.382642,345.426758 399.941575,345.064945 398.70459,344.341309 C397.467604,343.617672 396.474939,342.600267 395.726562,341.289062 C394.978186,339.977858 394.421551,338.468759 394.056641,336.761719 C393.69173,335.054679 393.509277,333.155935 393.509277,331.06543 C393.509277,329.34602 393.629882,327.756518 393.871094,326.296875 C394.112306,324.837232 394.486488,323.513678 394.993652,322.326172 C395.500816,321.138666 396.128577,320.130538 396.876953,319.301758 C397.625329,318.472978 398.519038,317.832847 399.558105,317.381348 C400.597173,316.929848 401.753737,316.704102 403.027832,316.704102 C404.611173,316.704102 406.012038,317.050452 407.230469,317.743164 C408.448899,318.435876 409.438473,319.422357 410.199219,320.702637 C410.959965,321.982917 411.532062,323.492016 411.915527,325.22998 C412.298993,326.967945 412.490723,328.913075 412.490723,331.06543 C412.490723,333.155935 412.311362,335.054679 411.952637,336.761719 C411.593911,338.468759 411.043461,339.977858 410.30127,341.289062 C409.559078,342.600267 408.572597,343.617672 407.341797,344.341309 C406.110996,345.064945 404.673023,345.426758 403.027832,345.426758 Z M403.027832,319.524414 C401.766107,319.524414 400.683761,320.022293 399.780762,321.018066 C398.877762,322.01384 398.200523,323.362133 397.749023,325.062988 C397.297524,326.763843 397.071777,328.727528 397.071777,330.954102 C397.071777,333.217785 397.297524,335.218579 397.749023,336.956543 C398.200523,338.694507 398.877762,340.070633 399.780762,341.084961 C400.683761,342.099289 401.766107,342.606445 403.027832,342.606445 C404.289557,342.606445 405.371903,342.099289 406.274902,341.084961 C407.177902,340.070633 407.855141,338.694507 408.306641,336.956543 C408.75814,335.218579 408.983887,333.217785 408.983887,330.954102 C408.983887,328.727528 408.75814,326.763843 408.306641,325.062988 C407.855141,323.362133 407.177902,322.01384 406.274902,321.018066 C405.371903,320.022293 404.289557,319.524414 403.027832,319.524414 Z" id="0" fill="#4C7EF3"></path>
        <path d="M479.795898,317.242188 L482.746094,317.242188 L482.746094,345 L479.461914,345 L479.461914,320.674805 C478.212559,321.491215 476.684905,322.190101 474.878906,322.771484 L474.878906,319.672852 C475.076824,319.586263 475.478838,319.413087 476.084961,319.15332 C476.691084,318.893553 477.145669,318.695639 477.44873,318.55957 C477.751792,318.423502 478.132159,318.231772 478.589844,317.984375 C479.047528,317.736978 479.449543,317.489585 479.795898,317.242188 Z" id="1" fill="#4C7EF3"></path>
        <path d="M375.391211,130.191406 L382.031836,107.144531 L387.744727,107.144531 L383.301368,130.191406 L375.391211,130.191406 Z M443.572383,136.099609 C438.396576,136.099609 434.433399,137.881818 431.682734,141.446289 C428.93207,145.01076 427.556758,150.243455 427.556758,157.144531 C427.556758,171.272206 432.87897,178.335938 443.523555,178.335938 C446.160287,178.335938 448.479599,177.790696 450.481562,176.700195 C452.483526,175.609695 454.062286,174.079762 455.217891,172.110352 C456.373495,170.140941 457.236117,167.919283 457.805781,165.445312 C458.375446,162.971342 458.660273,160.220718 458.660273,157.193359 C458.660273,153.091776 458.180135,149.511083 457.219844,146.451172 C456.259552,143.391261 454.623827,140.901051 452.312617,138.980469 C450.001408,137.059886 447.088025,136.099609 443.572383,136.099609 Z M444.402461,129.3125 C449.155089,129.3125 453.25661,130.516915 456.707148,132.925781 C460.157687,135.334647 462.745551,138.606099 464.47082,142.740234 C466.196089,146.87437 467.058711,151.61065 467.058711,156.949219 C467.058711,162.483101 466.204227,167.349588 464.495234,171.548828 C462.786241,175.748068 460.198377,179.060209 456.731562,181.485352 C453.264748,183.910494 449.122537,185.123047 444.304805,185.123047 C440.75661,185.123047 437.51771,184.358081 434.588008,182.828125 C431.658306,181.298169 429.216924,179.214857 427.263789,176.578125 L426.433711,184 L419.451289,184 L419.451289,109.634766 L427.605586,109.146484 L427.605586,126.871094 C427.605586,131.233095 427.540482,134.976547 427.410273,138.101562 C429.298304,135.399726 431.747823,133.259448 434.758906,131.680664 C437.769989,130.10188 440.984475,129.3125 444.402461,129.3125 Z M534.467617,184.976562 C529.259258,184.976562 525.572771,183.576837 523.408047,180.777344 C521.243323,177.977851 520.160977,173.111363 520.160977,166.177734 L520.160977,109.634766 L528.266445,109.146484 L528.266445,162.955078 C528.266445,165.168631 528.290859,166.942702 528.339687,168.277344 C528.388516,169.611986 528.510585,170.922194 528.705898,172.208008 C528.901212,173.493822 529.161626,174.462236 529.487148,175.113281 C529.812671,175.764326 530.284671,176.358396 530.903164,176.895508 C531.521657,177.43262 532.262209,177.790689 533.124844,177.969727 C533.987478,178.148764 535.053548,178.238281 536.323086,178.238281 C537.364758,178.238281 539.415519,178.042971 542.47543,177.652344 L542.914883,184.146484 C539.562001,184.699873 536.746274,184.976562 534.467617,184.976562 Z M578.221055,166.128906 L578.221055,130.435547 L586.42418,130.435547 L586.42418,166.226562 C586.42418,168.570324 586.757835,170.555981 587.425156,172.183594 C588.092477,173.811206 589.052754,175.072587 590.306016,175.967773 C591.559277,176.86296 592.975279,177.505857 594.554062,177.896484 C596.132846,178.287111 597.947607,178.482422 599.998398,178.482422 C604.23019,178.482422 607.526056,177.554697 609.886094,175.699219 C612.246132,173.843741 613.426133,170.68622 613.426133,166.226562 L613.426133,130.435547 L621.629258,130.435547 L621.629258,166.128906 C621.629258,168.863295 621.238637,171.320953 620.457383,173.501953 C619.676129,175.682954 618.626335,177.497714 617.307969,178.946289 C615.989603,180.394864 614.402705,181.591141 612.547227,182.535156 C610.691749,183.479171 608.730505,184.162758 606.663437,184.585938 C604.59637,185.009117 602.374712,185.220703 599.998398,185.220703 C597.654637,185.220703 595.441117,185.009117 593.357773,184.585938 C591.27443,184.162758 589.29691,183.471033 587.425156,182.510742 C585.553402,181.550451 583.94209,180.346036 582.591172,178.897461 C581.240254,177.448886 580.174184,175.634125 579.39293,173.453125 C578.611676,171.272125 578.221055,168.830743 578.221055,166.128906 Z M679.162383,136.050781 C674.995695,136.050781 671.594037,137.523748 668.957305,140.469727 C666.320573,143.415705 664.774364,147.443985 664.318633,152.554688 L692.590117,152.554688 C692.590117,147.248671 691.39384,143.171564 689.00125,140.323242 C686.60866,137.474921 683.32907,136.050781 679.162383,136.050781 Z M680.773711,185.123047 C672.993724,185.123047 666.865856,182.649113 662.389922,177.701172 C657.913988,172.75323 655.676055,165.982465 655.676055,157.388672 C655.676055,149.087849 657.840747,142.357773 662.170195,137.198242 C666.499644,132.038711 672.196202,129.410157 679.260039,129.3125 C685.900697,129.3125 691.165944,131.582985 695.055938,136.124023 C698.945931,140.665062 700.890898,146.727827 700.890898,154.3125 C700.890898,154.703127 700.88276,155.419266 700.866484,156.460938 C700.850208,157.502609 700.84207,158.2513 700.84207,158.707031 L664.074492,158.707031 C664.172149,164.794301 665.742771,169.53872 668.786406,172.94043 C671.830041,176.342139 675.923425,178.042969 681.06668,178.042969 C686.730771,178.042969 692.411052,176.545588 698.107695,173.550781 L699.377227,180.142578 C693.941001,183.462907 687.739892,185.123047 680.773711,185.123047 Z M754.314258,136.099609 C749.138451,136.099609 745.175274,137.881818 742.424609,141.446289 C739.673945,145.01076 738.298633,150.243455 738.298633,157.144531 C738.298633,171.272206 743.620845,178.335938 754.26543,178.335938 C756.902162,178.335938 759.221474,177.790696 761.223438,176.700195 C763.225401,175.609695 764.804161,174.079762 765.959766,172.110352 C767.11537,170.140941 767.977992,167.919283 768.547656,165.445312 C769.117321,162.971342 769.402148,160.220718 769.402148,157.193359 C769.402148,153.091776 768.92201,149.511083 767.961719,146.451172 C767.001427,143.391261 765.365702,140.901051 763.054492,138.980469 C760.743283,137.059886 757.8299,136.099609 754.314258,136.099609 Z M755.144336,129.3125 C759.896964,129.3125 763.998485,130.516915 767.449023,132.925781 C770.899562,135.334647 773.487426,138.606099 775.212695,142.740234 C776.937964,146.87437 777.800586,151.61065 777.800586,156.949219 C777.800586,162.483101 776.946102,167.349588 775.237109,171.548828 C773.528116,175.748068 770.940252,179.060209 767.473438,181.485352 C764.006623,183.910494 759.864412,185.123047 755.04668,185.123047 C751.498485,185.123047 748.259585,184.358081 745.329883,182.828125 C742.400181,181.298169 739.958799,179.214857 738.005664,176.578125 L737.175586,184 L730.193164,184 L730.193164,109.634766 L738.347461,109.146484 L738.347461,126.871094 C738.347461,131.233095 738.282357,134.976547 738.152148,138.101562 C740.040179,135.399726 742.489698,133.259448 745.500781,131.680664 C748.511864,130.10188 751.72635,129.3125 755.144336,129.3125 Z M832.550117,136.050781 C828.38343,136.050781 824.981771,137.523748 822.345039,140.469727 C819.708307,143.415705 818.162099,147.443985 817.706367,152.554688 L845.977852,152.554688 C845.977852,147.248671 844.781574,143.171564 842.388984,140.323242 C839.996394,137.474921 836.716805,136.050781 832.550117,136.050781 Z M834.161445,185.123047 C826.381458,185.123047 820.25359,182.649113 815.777656,177.701172 C811.301722,172.75323 809.063789,165.982465 809.063789,157.388672 C809.063789,149.087849 811.228481,142.357773 815.55793,137.198242 C819.887378,132.038711 825.583936,129.410157 832.647773,129.3125 C839.288432,129.3125 844.553678,131.582985 848.443672,136.124023 C852.333665,140.665062 854.278633,146.727827 854.278633,154.3125 C854.278633,154.703127 854.270495,155.419266 854.254219,156.460938 C854.237943,157.502609 854.229805,158.2513 854.229805,158.707031 L817.462227,158.707031 C817.559883,164.794301 819.130506,169.53872 822.174141,172.94043 C825.217776,176.342139 829.311159,178.042969 834.454414,178.042969 C840.118505,178.042969 845.798787,176.545588 851.49543,173.550781 L852.764961,180.142578 C847.328736,183.462907 841.127626,185.123047 834.161445,185.123047 Z M925.860195,129.947266 C927.325046,129.947266 928.659668,130.044921 929.864102,130.240234 L929.571133,137.759766 C928.073729,137.499348 926.771659,137.369141 925.664883,137.369141 C921.107568,137.369141 917.404806,138.956039 914.556484,142.129883 C911.708163,145.303727 910.284023,149.234352 910.284023,153.921875 L910.284023,184 L902.129727,184 C902.097174,151.122231 902.080898,133.267592 902.080898,130.435547 L908.868008,130.435547 L909.649258,140.054688 C911.504736,137.027329 913.864738,134.585947 916.729336,132.730469 C919.593934,130.874991 922.637523,129.947266 925.860195,129.947266 Z M1004.51598,129.947266 C1005.98083,129.947266 1007.31545,130.044921 1008.51988,130.240234 L1008.22691,137.759766 C1006.72951,137.499348 1005.42744,137.369141 1004.32066,137.369141 C999.76335,137.369141 996.060587,138.956039 993.212266,142.129883 C990.363944,145.303727 988.939805,149.234352 988.939805,153.921875 L988.939805,184 L980.785508,184 C980.752956,151.122231 980.73668,133.267592 980.73668,130.435547 L987.523789,130.435547 L988.305039,140.054688 C990.160517,137.027329 992.52052,134.585947 995.385117,132.730469 C998.249715,130.874991 1001.2933,129.947266 1004.51598,129.947266 Z M1039.31238,130.435547 L1047.95496,130.435547 L1064.84949,175.015625 L1079.88855,130.435547 L1088.53113,130.435547 C1074.07794,170.214392 1066.60731,190.721999 1066.11902,191.958984 C1063.87292,197.590523 1061.15485,201.716458 1057.96473,204.336914 C1054.77461,206.95737 1050.57543,208.267578 1045.36707,208.267578 C1043.80456,208.267578 1042.1607,208.137371 1040.43543,207.876953 L1039.94715,200.943359 C1041.77007,201.073568 1043.13725,201.138672 1044.04871,201.138672 C1047.72711,201.138672 1050.51843,200.463223 1052.42273,199.112305 C1054.32704,197.761386 1056.02787,195.230487 1057.52527,191.519531 C1058.85992,188.101545 1059.85274,185.464853 1060.50379,183.609375 L1039.31238,130.435547 Z M1119.45644,130.191406 L1113.79238,130.191406 L1118.3334,107.144531 L1125.99941,107.144531 L1119.45644,130.191406 Z" id="‘blueberry’" fill="#4C7EF3"></path>
        <g id="Group" transform="translate(313.000000, 143.000000)" stroke="#4C7EF3" stroke-width="4">
            <polyline id="Rectangle-3" transform="translate(19.661165, 11.677670) rotate(-135.000000) translate(-19.661165, -11.677670) " points="27.9068542 19.9233585 11.4154762 19.9233585 11.4154762 3.43198052"></polyline>
            <path d="M29.9340824,11.5 L0.920662288,11.5" id="Line" stroke-linecap="square"></path>
        </g>
        <path d="M402,55 L402,305" id="Line-2" stroke="#4C7EF3" stroke-width="2" stroke-linecap="square" stroke-dasharray="11,12"></path>
        <path d="M479,55 L479,305" id="Line-2-Copy" stroke="#4C7EF3" stroke-width="2" stroke-linecap="square" stroke-dasharray="11,12"></path>
        <path d="M549.243164,345 L548.816406,341.957031 L558.40918,331.306641 C559.052412,330.589189 559.673988,329.661464 560.273926,328.523438 C560.873864,327.385411 561.309894,326.420577 561.582031,325.628906 L562.008789,324.459961 C562.008789,322.926099 561.582036,321.735519 560.728516,320.888184 C559.874996,320.040849 558.662768,319.617188 557.091797,319.617188 C554.469388,319.617188 552.403653,320.377922 550.894531,321.899414 L549.818359,319.116211 C551.525399,317.50813 554.024072,316.704102 557.314453,316.704102 C559.837903,316.704102 561.847974,317.387526 563.344727,318.754395 C564.841479,320.121263 565.589844,321.948882 565.589844,324.237305 C565.540364,324.410483 565.466146,324.642414 565.367188,324.933105 C565.268229,325.223797 565.054852,325.789709 564.727051,326.630859 C564.39925,327.472009 564.055991,328.269853 563.697266,329.024414 C563.33854,329.778975 562.883955,330.607743 562.333496,331.510742 C561.783038,332.413741 561.22331,333.168291 560.654297,333.774414 L552.824219,342.142578 L565.682617,342.142578 L565.478516,345 L549.243164,345 Z" id="2" fill="#4C7EF3"></path>
        <path d="M556,55 L556,305" id="Line-2-Copy-2" stroke="#4C7EF3" stroke-width="2" stroke-linecap="square" stroke-dasharray="11,12"></path>
        <path d="M633.470215,345.426758 C631.812654,345.426758 630.337572,345.210289 629.044922,344.777344 C627.752272,344.344399 626.809085,343.843427 626.215332,343.274414 L627.254395,340.546875 C628.998544,341.919929 631.076648,342.606445 633.48877,342.606445 C635.344248,342.606445 636.81933,342.145675 637.914062,341.224121 C639.008795,340.302567 639.556152,339.013029 639.556152,337.355469 C639.556152,336.452469 639.416994,335.663903 639.138672,334.989746 C638.86035,334.315589 638.48926,333.771324 638.025391,333.356934 C637.561521,332.942544 636.967777,332.608562 636.244141,332.35498 C635.520504,332.101398 634.778324,331.922038 634.017578,331.816895 C633.256832,331.711751 632.375493,331.64681 631.373535,331.62207 C631.249837,331.62207 631.064292,331.618978 630.816895,331.612793 C630.569497,331.606608 630.383952,331.603516 630.260254,331.603516 L630.260254,328.838867 L631.187988,328.838867 C632.053878,328.826497 632.817705,328.780111 633.479492,328.699707 C634.141279,328.619303 634.803057,328.473959 635.464844,328.263672 C636.126631,328.053384 636.673989,327.775067 637.106934,327.428711 C637.539878,327.082355 637.892414,326.618492 638.164551,326.037109 C638.436688,325.455726 638.572754,324.76921 638.572754,323.977539 C638.572754,321.008774 636.871925,319.524414 633.470215,319.524414 C632.245599,319.524414 631.09522,319.703774 630.019043,320.0625 C628.942866,320.421226 628.021325,320.903643 627.254395,321.509766 L626.215332,318.800781 C628.05844,317.402988 630.711734,316.704102 634.175293,316.704102 C635.573086,316.704102 636.865717,316.960772 638.053223,317.474121 C639.240729,317.98747 640.217932,318.772944 640.984863,319.830566 C641.751794,320.888189 642.135254,322.128248 642.135254,323.550781 C642.135254,325.282561 641.7085,326.705073 640.85498,327.818359 C640.001461,328.931646 638.801603,329.72949 637.255371,330.211914 C638.987151,330.58301 640.344722,331.393223 641.328125,332.642578 C642.311528,333.891933 642.803223,335.475251 642.803223,337.392578 C642.803223,339.829439 641.931161,341.777662 640.187012,343.237305 C638.442862,344.696947 636.203952,345.426758 633.470215,345.426758 Z" id="3" fill="#4C7EF3"></path>
        <path d="M633,55 L633,305" id="Line-2-Copy-3" stroke="#4C7EF3" stroke-width="2" stroke-linecap="square" stroke-dasharray="11,12"></path>
        <path d="M721.083496,338.116211 L717.929199,338.116211 L717.929199,345 L714.812012,345 L714.812012,338.116211 L702.269043,338.116211 L702.269043,335.277344 L714.459473,317.242188 L717.929199,317.242188 L717.929199,335.425781 L721.343262,335.425781 L721.083496,338.116211 Z M714.812012,321.454102 L705.534668,335.425781 L714.812012,335.425781 L714.812012,321.454102 Z" id="4" fill="#4C7EF3"></path>
        <path d="M710,55 L710,305" id="Line-2-Copy-4" stroke="#4C7EF3" stroke-width="2" stroke-linecap="square" stroke-dasharray="11,12"></path>
        <path d="M795.709473,317.242188 L795.449707,320.285156 L784.112793,320.285156 C783.989094,323.884784 783.896322,326.79784 783.834473,329.024414 C785.232266,328.133785 786.74755,327.688477 788.380371,327.688477 C789.753425,327.688477 790.981114,327.908038 792.063477,328.347168 C793.145839,328.786298 794.03027,329.389319 794.716797,330.15625 C795.403324,330.923181 795.925942,331.816889 796.284668,332.837402 C796.643394,333.857915 796.822754,334.961908 796.822754,336.149414 C796.822754,338.957371 795.922861,341.205558 794.123047,342.894043 C792.323233,344.582528 789.877131,345.426758 786.784668,345.426758 C783.679835,345.426758 781.193531,344.579436 779.325684,342.884766 L780.531738,340.268555 C782.362477,341.703458 784.483875,342.420898 786.895996,342.420898 C788.924652,342.420898 790.526524,341.845709 791.70166,340.695312 C792.876796,339.544916 793.464355,338.042001 793.464355,336.186523 C793.464355,334.528963 792.969569,333.183762 791.97998,332.150879 C790.990392,331.117996 789.58025,330.601562 787.749512,330.601562 C785.918773,330.601562 784.446783,331.213861 783.333496,332.438477 L780.754395,332.085938 L781.478027,317.242188 L795.709473,317.242188 Z" id="5" fill="#4C7EF3"></path>
        <path d="M787,55 L787,305" id="Line-2-Copy-5" stroke="#4C7EF3" stroke-width="2" stroke-linecap="square" stroke-dasharray="11,12"></path>
        <path d="M866.195801,327.911133 C867.754402,327.911133 869.195469,328.27913 870.519043,329.015137 C871.842617,329.751143 872.906409,330.79638 873.710449,332.150879 C874.51449,333.505378 874.916504,335.011385 874.916504,336.668945 C874.916504,339.192395 874.066089,341.282869 872.365234,342.94043 C870.66438,344.59799 868.422377,345.426758 865.63916,345.426758 C864.191887,345.426758 862.871425,345.182457 861.677734,344.693848 C860.484044,344.205238 859.500655,343.543461 858.727539,342.708496 C857.954423,341.873531 857.354494,340.902512 856.927734,339.79541 C856.500974,338.688308 856.287598,337.503913 856.287598,336.242188 C856.287598,334.225901 856.655595,332.423022 857.391602,330.833496 C858.127608,329.24397 859.46044,327.230806 861.390137,324.793945 C861.860191,324.200192 862.602371,323.284837 863.616699,322.047852 C864.631027,320.810866 865.534013,319.722335 866.325684,318.782227 L867.494629,317.37207 L871.780762,317.37207 L862.020996,329.024414 C863.41879,328.282223 864.810377,327.911133 866.195801,327.911133 Z M859.794434,336.594727 C859.794434,337.695644 860.001626,338.691402 860.416016,339.582031 C860.830406,340.472661 861.479813,341.199379 862.364258,341.762207 C863.248702,342.325035 864.303217,342.606445 865.527832,342.606445 C867.35857,342.606445 868.796544,342.043625 869.841797,340.917969 C870.887049,339.792312 871.409668,338.39454 871.409668,336.724609 C871.409668,334.96809 870.887049,333.523931 869.841797,332.39209 C868.796544,331.260248 867.35857,330.694336 865.527832,330.694336 C863.585765,330.694336 862.144699,331.244786 861.20459,332.345703 C860.264481,333.44662 859.794434,334.862947 859.794434,336.594727 Z" id="6" fill="#4C7EF3"></path>
        <path d="M864,55 L864,305" id="Line-2-Copy-6" stroke="#4C7EF3" stroke-width="2" stroke-linecap="square" stroke-dasharray="11,12"></path>
        <polygon id="7" fill="#4C7EF3" points="937.083008 345 946.620117 320.118164 934.095703 320.118164 934.299805 317.242188 950.386719 317.242188 950.386719 319.765625 940.459961 345"></polygon>
        <path d="M941,55 L941,305" id="Line-2-Copy-7" stroke="#4C7EF3" stroke-width="2" stroke-linecap="square" stroke-dasharray="11,12"></path>
        <path d="M1019.05566,345.426758 C1017.37336,345.426758 1015.85499,345.145348 1014.50049,344.58252 C1013.14599,344.019691 1012.04818,343.156907 1011.20703,341.994141 C1010.36588,340.831374 1009.94531,339.452156 1009.94531,337.856445 C1009.94531,336.087556 1010.45247,334.547533 1011.4668,333.236328 C1012.48112,331.925124 1013.89745,330.972659 1015.71582,330.378906 C1012.25226,329.154291 1010.52051,326.927751 1010.52051,323.699219 C1010.52051,321.509755 1011.31217,319.796556 1012.89551,318.55957 C1014.47885,317.322585 1016.53221,316.704102 1019.05566,316.704102 C1021.56674,316.704102 1023.60155,317.322585 1025.16016,318.55957 C1026.71876,319.796556 1027.49805,321.509755 1027.49805,323.699219 C1027.49805,325.332039 1027.07748,326.705073 1026.23633,327.818359 C1025.39518,328.931646 1024.22006,329.785153 1022.71094,330.378906 C1024.38087,330.972659 1025.69205,331.925124 1026.64453,333.236328 C1027.59701,334.547533 1028.07324,336.087556 1028.07324,337.856445 C1028.07324,340.231457 1027.21664,342.086907 1025.50342,343.422852 C1023.79019,344.758796 1021.64096,345.426758 1019.05566,345.426758 Z M1019.05566,331.956055 C1017.28678,332.36426 1015.87045,333.047684 1014.80664,334.006348 C1013.74283,334.965011 1013.21094,336.174146 1013.21094,337.633789 C1013.21094,339.155281 1013.76139,340.364416 1014.8623,341.26123 C1015.96322,342.158045 1017.36099,342.606445 1019.05566,342.606445 C1020.75033,342.606445 1022.13264,342.158045 1023.20264,341.26123 C1024.27263,340.364416 1024.80762,339.155281 1024.80762,337.633789 C1024.80762,336.161776 1024.28809,334.946457 1023.24902,333.987793 C1022.20996,333.029129 1020.81218,332.35189 1019.05566,331.956055 Z M1019.05566,319.524414 C1017.59602,319.524414 1016.35596,319.889319 1015.33545,320.619141 C1014.31494,321.348962 1013.80469,322.350905 1013.80469,323.625 C1013.80469,326.544285 1015.555,328.393551 1019.05566,329.172852 C1022.50685,328.393551 1024.23242,326.544285 1024.23242,323.625 C1024.23242,322.350905 1023.73145,321.348962 1022.72949,320.619141 C1021.72753,319.889319 1020.50294,319.524414 1019.05566,319.524414 Z" id="8" fill="#4C7EF3"></path>
        <path d="M1018,55 L1018,305" id="Line-2-Copy-8" stroke="#4C7EF3" stroke-width="2" stroke-linecap="square" stroke-dasharray="11,12"></path>
        <path d="M1095.5083,333.904297 C1093.93733,333.904297 1092.49317,333.561039 1091.17578,332.874512 C1089.85839,332.187985 1088.79769,331.195319 1087.99365,329.896484 C1087.18961,328.59765 1086.7876,327.119474 1086.7876,325.461914 C1086.7876,322.938464 1087.65347,320.84799 1089.38525,319.19043 C1091.11703,317.532869 1093.38068,316.704102 1096.17627,316.704102 C1097.62354,316.704102 1098.93782,316.936033 1100.11914,317.399902 C1101.30046,317.863772 1102.27148,318.50081 1103.03223,319.311035 C1103.79297,320.121261 1104.38053,321.06754 1104.79492,322.149902 C1105.20931,323.232265 1105.4165,324.404291 1105.4165,325.666016 C1105.4165,327.434905 1105.11345,329.036777 1104.50732,330.47168 C1103.9012,331.906583 1102.85596,333.632151 1101.37158,335.648438 C1100.83968,336.353519 1099.95215,337.485344 1098.70898,339.043945 C1097.46581,340.602547 1096.35564,341.981765 1095.37842,343.181641 L1093.9126,345 L1089.83057,345 L1099.68311,332.791016 C1098.28531,333.533207 1096.89372,333.904297 1095.5083,333.904297 Z M1101.90967,325.313477 C1101.90967,323.618807 1101.43034,322.230311 1100.47168,321.147949 C1099.51302,320.065587 1098.11834,319.524414 1096.2876,319.524414 C1094.44449,319.524414 1092.98487,320.090326 1091.90869,321.222168 C1090.83251,322.35401 1090.29443,323.74869 1090.29443,325.40625 C1090.29443,327.138029 1090.81396,328.523432 1091.85303,329.5625 C1092.8921,330.601568 1094.33316,331.121094 1096.17627,331.121094 C1098.13071,331.121094 1099.57487,330.583013 1100.50879,329.506836 C1101.44271,328.430659 1101.90967,327.032886 1101.90967,325.313477 Z" id="9" fill="#4C7EF3"></path>
        <path d="M1095,55 L1095,305" id="Line-2-Copy-9" stroke="#4C7EF3" stroke-width="2" stroke-linecap="square" stroke-dasharray="11,12"></path>
    </g>
</svg>